# xmcd CD database file
#
# Track frame offsets:
#	150
#	16599
#	30414
#	42283
#	55917
#	68794
#	86838
#	101216
#	117372
#	136700
#	156112
#	173324
#	194077
#	207961
#
# Disc length: 2987 seconds
#
# Revision: 0
# Processed by: cddbd v1.5.2PL0 Copyright (c) Steve Scherf et al.
# Submitted via: CDex 1.51
#
DISCID=b40ba90e
DTITLE=Various Artist - Mr Music Country 2012-09
DYEAR=2012
DGENRE=Country
TTITLE0=Trisha Yearwood - Believe My Baby (I Lied)
TTITLE1=Josh Kelley - Georgia Clay
TTITLE2=David Ferguson - Guess Things Happen That Way
TTITLE3=Jill Johnson - Someone To Flatter
TTITLE4=Easton Corbin - A Little More Country Than That
TTITLE5=Lucinda Williams - Lonely Girls
TTITLE6=Reba McEntire - Walk On
TTITLE7=Mark Chesnutt - Gonna Get A Life
TTITLE8=Anna Ternheim - Lorelie-Marie
TTITLE9=Billy Ray Cyrus - It's All The Same To Me
TTITLE10=Shania Twain - (If You're Not In It For Love) I'm Outta Here
TTITLE11=Vince Gill - If You Have Forever In Mind
TTITLE12=Calaisa - Up To Us
TTITLE13=Terri Clark - You're Easy On The Eyes
EXTD=YEAR: 2012
EXTT0=
EXTT1=
EXTT2=
EXTT3=
EXTT4=
EXTT5=
EXTT6=
EXTT7=
EXTT8=
EXTT9=
EXTT10=
EXTT11=
EXTT12=
EXTT13=
PLAYORDER=
